<?xml version="1.0" encoding="utf-8"?>
<!-- Generator: Adobe Illustrator 22.0.0, SVG Export Plug-In . SVG Version: 6.00 Build 0)  -->
<svg version="1.1" id="Warstwa_1" xmlns="http://www.w3.org/2000/svg" xmlns:xlink="http://www.w3.org/1999/xlink" x="0px" y="0px"
	 viewBox="0 0 244.1 57.2" style="enable-background:new 0 0 244.1 57.2;" xml:space="preserve">
<path style="fill:#49D5DD;" d="M88,58.9c-0.5,0-0.9-0.1-1.4-0.2l-9.2-3.3c-3.3,1.6-6.9,2.5-10.6,2.5c-6.4,0-12.5-2.5-17.1-7.1
	c-4.6-4.6-7.1-10.6-7.1-17.1c0-6.4,2.5-12.5,7.1-17.1c4.6-4.6,10.6-7.1,17.1-7.1c6.4,0,12.5,2.5,17.1,7.1c7.4,7.4,9.1,18.5,4.6,27.7
	l3.3,9.2c0.5,1.5,0.2,3.1-0.9,4.2C90.1,58.5,89.1,58.9,88,58.9z M66.8,17.5c-4.3,0-8.4,1.7-11.4,4.7c-3,3-4.7,7.1-4.7,11.4
	c0,4.3,1.7,8.4,4.7,11.4c3,3,7.1,4.7,11.4,4.7c2.9,0,5.8-0.8,8.3-2.3c1-0.6,2.3-0.7,3.4-0.3l2.9,1.1l-1.1-2.9
	c-0.4-1.1-0.3-2.4,0.3-3.4c3.8-6.3,2.8-14.4-2.5-19.7C75.2,19.2,71.1,17.5,66.8,17.5z"/>
<g>
	<g>
		<path style="fill:#9076F7;" d="M33.7,34.6c-1.9,0-3.5,1.6-3.5,3.5c0,6.4-5.2,11.6-11.6,11.6C12.2,49.6,7,44.4,7,38.1V17h11.6
			c1.9,0,3.5-1.6,3.5-3.5c0-1.9-1.6-3.5-3.5-3.5H7V3.5C7,1.6,5.4,0,3.5,0S0,1.6,0,3.5v34.6c0,10.2,8.3,18.6,18.6,18.6
			c10.2,0,18.6-8.3,18.6-18.6C37.2,36.1,35.6,34.6,33.7,34.6z"/>
		<path style="fill:#9076F7;" d="M116.1,49.6c-6.4,0-11.6-5.2-11.6-11.6V3.5c0-1.9-1.6-3.5-3.5-3.5c-1.9,0-3.5,1.6-3.5,3.5v34.6
			c0,10.2,8.3,18.6,18.6,18.6c1.9,0,3.5-1.6,3.5-3.5C119.6,51.2,118,49.6,116.1,49.6z"/>
		<path style="fill:#9076F7;" d="M142.7,34.2l15.6-15.6c1.4-1.4,1.4-3.6,0-5c-1.4-1.4-3.6-1.4-4.9,0l-18.1,18.1
			c-0.1,0.1-0.2,0.2-0.3,0.3V3.5c0-1.9-1.6-3.5-3.5-3.5S128,1.6,128,3.5v49.6c0,1.9,1.6,3.5,3.5,3.5s3.5-1.6,3.5-3.5V36.3
			c0.1,0.1,0.2,0.2,0.3,0.3l18.9,18.9c0.7,0.7,1.6,1,2.5,1c0.9,0,1.8-0.3,2.5-1c1.4-1.4,1.4-3.6,0-5L142.7,34.2z"/>
		<path style="fill:#9076F7;" d="M243.1,11.1c-1.4-1.4-3.6-1.4-4.9,0l-14.6,14.6V13.5c0-1.9-1.6-3.5-3.5-3.5c-1.9,0-3.5,1.6-3.5,3.5
			v39.6c0,1.9,1.6,3.5,3.5,3.5c1.9,0,3.5-1.6,3.5-3.5V35.6l19.6-19.5C244.5,14.7,244.5,12.5,243.1,11.1z"/>
		<path style="fill:#9076F7;" d="M207.4,34.5c-1.9-0.4-3.8,0.8-4.2,2.7c-0.7,3.1-2.2,5.9-4.5,8.2c-3.1,3.1-7.3,4.9-11.7,4.9
			c-3.2,0-6.3-0.9-9-2.6l25.7-25.7c1.4-1.4,1.4-3.6,0-4.9c-4.5-4.5-10.4-6.9-16.7-6.9c-6.3,0-12.2,2.5-16.7,6.9
			c-9.2,9.2-9.2,24.2,0,33.4c4.5,4.5,10.4,6.9,16.7,6.9c0,0,0,0,0,0c6.3,0,12.2-2.5,16.7-6.9c3.2-3.2,5.4-7.2,6.4-11.6
			C210.5,36.8,209.3,34.9,207.4,34.5z M175.3,21.9c3.1-3.1,7.3-4.9,11.7-4.9c3.2,0,6.3,0.9,9,2.6l-22.9,22.9
			C168.9,36.2,169.7,27.5,175.3,21.9z"/>
	</g>
</g>
</svg>
